<?xml version="1.0" encoding="utf-8"?>
<!-- Generator: Adobe Illustrator 22.1.0, SVG Export Plug-In . SVG Version: 6.00 Build 0)  -->
<svg version="1.1"
	 id="svg1307" inkscape:version="0.44" sodipodi:docbase="/home/luca/Artwork/blackwhite-icon-theme/scalable/actions" sodipodi:docname="mail-mark-unread.svg" sodipodi:version="0.32" xmlns:cc="http://web.resource.org/cc/" xmlns:dc="http://purl.org/dc/elements/1.1/" xmlns:inkscape="http://www.inkscape.org/namespaces/inkscape" xmlns:rdf="http://www.w3.org/1999/02/22-rdf-syntax-ns#" xmlns:sodipodi="http://sodipodi.sourceforge.net/DTD/sodipodi-0.dtd" xmlns:svg="http://www.w3.org/2000/svg"
	 xmlns="http://www.w3.org/2000/svg" xmlns:xlink="http://www.w3.org/1999/xlink" x="0px" y="0px" viewBox="0 0 248.7 254"
	 style="enable-background:new 0 0 248.7 254;" xml:space="preserve">
<style type="text/css">
	.st0{fill:none;stroke:#6D9C99;stroke-width:16;stroke-miterlimit:10;}
	.st1{fill:none;stroke:#6D9C99;stroke-width:16;stroke-linecap:round;stroke-linejoin:round;}
</style>
<sodipodi:namedview  bordercolor="#666666" borderopacity="1.0" id="base" inkscape:current-layer="layer1" inkscape:cx="24" inkscape:cy="24" inkscape:document-units="px" inkscape:grid-bbox="true" inkscape:pageopacity="0.0" inkscape:pageshadow="2" inkscape:window-height="944" inkscape:window-width="1270" inkscape:window-x="0" inkscape:window-y="26" inkscape:zoom="15.1875" pagecolor="#ffffff" showgrid="true">
	</sodipodi:namedview>
<g id="layer1_2_" inkscape:groupmode="layer" inkscape:label="Layer 1">
	<path class="st0" d="M216.4,8.6H34.3C20.8,8.6,9.8,21.5,9.8,37.4v160c0,15.9,11,28.7,24.5,28.7h182.1c13.5,0,24.5-12.9,24.5-28.7
		v-160C240.9,21.5,229.9,8.6,216.4,8.6z"/>
	<path id="path4000_1_" sodipodi:nodetypes="cccc" class="st1" d="M16.5,21.4L112,128.9c7.7,9.3,12.9,9.2,20.8,0.3L235.3,18.6"/>
	<path class="st1" d="M95.3,110.5c-6.6,9.3-13.3,18.7-19.9,28c-8.2,11.6-16.4,23.1-24.6,34.7c-7.1,10-14.3,20.1-21.4,30.1
		c-3.5,4.9-7,9.8-10.5,14.7c-0.1,0.1-0.1,0.1-0.2,0.2"/>
	<path class="st1" d="M115.2,82.7"/>
	<path class="st1" d="M152.9,112.9c6.6,9.3,13.3,18.7,19.9,28c8.2,11.6,16.4,23.1,24.6,34.7c7.1,10,14.3,20.1,21.4,30.1
		c3.5,4.9,7,9.8,10.5,14.7c0.1,0.1,0.1,0.1,0.2,0.2"/>
</g>
</svg>
