<?xml version="1.0" encoding="utf-8"?>
<!-- Generator: Adobe Illustrator 22.1.0, SVG Export Plug-In . SVG Version: 6.00 Build 0)  -->
<svg version="1.1"
	 id="svg2" inkscape:output_extension="org.inkscape.output.svg.inkscape" inkscape:version="0.47 r22583" sodipodi:docname="facebook.svg" sodipodi:version="0.32" xmlns:cc="http://creativecommons.org/ns#" xmlns:dc="http://purl.org/dc/elements/1.1/" xmlns:inkscape="http://www.inkscape.org/namespaces/inkscape" xmlns:rdf="http://www.w3.org/1999/02/22-rdf-syntax-ns#" xmlns:sodipodi="http://sodipodi.sourceforge.net/DTD/sodipodi-0.dtd" xmlns:svg="http://www.w3.org/2000/svg"
	 xmlns="http://www.w3.org/2000/svg" xmlns:xlink="http://www.w3.org/1999/xlink" x="0px" y="0px" viewBox="0 0 256 256"
	 style="enable-background:new 0 0 256 256;" xml:space="preserve">
<style type="text/css">
	.st0{fill:none;stroke:#6D9C99;stroke-width:9;stroke-miterlimit:10;}
	.st1{opacity:0.3004;fill:url(#path1950_1_);enable-background:new    ;}
	.st2{fill:#6D9C99;}
</style>
<title  id="title2910">facebook web</title>
<sodipodi:namedview  bordercolor="#666666" borderopacity="1.0" id="base" inkscape:current-layer="layer1" inkscape:cx="204.60201" inkscape:cy="64.459739" inkscape:document-units="px" inkscape:pageopacity="0.0" inkscape:pageshadow="2" inkscape:window-height="762" inkscape:window-maximized="0" inkscape:window-width="682" inkscape:window-x="1" inkscape:window-y="193" inkscape:zoom="0.98994949" pagecolor="#ffffff" showgrid="false">
	</sodipodi:namedview>
<g id="layer1" transform="translate(-373.642,-318.344)" inkscape:groupmode="layer" inkscape:label="Layer 1">

		<path id="rect1942" inkscape:export-filename="C:\Documents and Settings\Molumen\Desktop\path3511111.png" inkscape:export-xdpi="7.7063322" inkscape:export-ydpi="7.7063322" class="st0" d="
		M587.5,328.3h-165c-19.6,0-35.5,15.9-35.5,35.5v165c0,19.6,15.9,35.5,35.5,35.5h165c19.6,0,35.5-15.9,35.5-35.5v-165
		C622.9,344.2,607.1,328.3,587.5,328.3z"/>

		<linearGradient id="path1950_1_" gradientUnits="userSpaceOnUse" x1="-807.3979" y1="201.7365" x2="-859.0944" y2="51.0476" gradientTransform="matrix(-0.5915 0 0 -0.5915 -33.6906 413.6439)">
		<stop  offset="0" style="stop-color:#FFFFFF"/>
		<stop  offset="1" style="stop-color:#FFFFFF;stop-opacity:0"/>
	</linearGradient>

		<path id="path1950" inkscape:export-filename="C:\Documents and Settings\Molumen\Desktop\path3511111.png" inkscape:export-xdpi="7.7063322" inkscape:export-ydpi="7.7063322" sodipodi:nodetypes="ccccsssc" class="st1" d="
		M557.3,338.4H446c-29.5,0-53.2,23.9-53.2,53.6v108.6c1,23.2,4.6,8.5,11.6-17.1c8.1-29.8,34.5-55.9,66.7-75.5
		c24.6-14.9,52.1-24.4,102.1-25.4C601.6,382.2,599.1,345.8,557.3,338.4z"/>
	<path class="st2" d="M566.7,414.7c0.1,1.4,0.1,2.7,0.1,4.1c0,42.1-32,90.6-90.6,90.6h0h0c-18,0-34.7-5.3-48.8-14.3
		c2.5,0.3,5,0.4,7.6,0.4c14.9,0,28.6-5.1,39.5-13.6c-13.9-0.3-25.7-9.5-29.7-22.1c1.9,0.4,3.9,0.6,6,0.6c2.9,0,5.7-0.4,8.4-1.1
		c-14.6-2.9-25.5-15.8-25.5-31.2c0-0.1,0-0.3,0-0.4c4.3,2.4,9.2,3.8,14.4,4c-8.5-5.7-14.2-15.5-14.2-26.5c0-5.8,1.6-11.3,4.3-16
		c15.7,19.3,39.2,31.9,65.6,33.3c-0.5-2.3-0.8-4.8-0.8-7.3c0-17.6,14.3-31.8,31.8-31.8c9.2,0,17.4,3.9,23.2,10.1
		c7.3-1.4,14.1-4.1,20.2-7.7c-2.4,7.4-7.4,13.7-14,17.6c6.4-0.8,12.6-2.5,18.3-5C578.3,404.6,572.9,410.2,566.7,414.7z"/>
</g>
</svg>
