<?xml version="1.0" encoding="utf-8"?>
<!-- Generator: Adobe Illustrator 22.1.0, SVG Export Plug-In . SVG Version: 6.00 Build 0)  -->
<svg version="1.1"
	 id="svg1307" inkscape:version="0.44" sodipodi:docbase="/home/luca/Artwork/blackwhite-icon-theme/scalable/actions" sodipodi:docname="mail-mark-unread.svg" sodipodi:version="0.32" xmlns:cc="http://web.resource.org/cc/" xmlns:dc="http://purl.org/dc/elements/1.1/" xmlns:inkscape="http://www.inkscape.org/namespaces/inkscape" xmlns:rdf="http://www.w3.org/1999/02/22-rdf-syntax-ns#" xmlns:sodipodi="http://sodipodi.sourceforge.net/DTD/sodipodi-0.dtd" xmlns:svg="http://www.w3.org/2000/svg"
	 xmlns="http://www.w3.org/2000/svg" xmlns:xlink="http://www.w3.org/1999/xlink" x="0px" y="0px" viewBox="0 0 256.6 259"
	 style="enable-background:new 0 0 256.6 259;" xml:space="preserve">
<style type="text/css">
	.st0{fill:none;stroke:#6D9C99;stroke-width:10;stroke-miterlimit:10;}
	.st1{fill:none;stroke:#6D9C99;stroke-width:10;stroke-linecap:round;stroke-linejoin:round;}
</style>
<sodipodi:namedview  bordercolor="#666666" borderopacity="1.0" id="base" inkscape:current-layer="layer1" inkscape:cx="24" inkscape:cy="24" inkscape:document-units="px" inkscape:grid-bbox="true" inkscape:pageopacity="0.0" inkscape:pageshadow="2" inkscape:window-height="944" inkscape:window-width="1270" inkscape:window-x="0" inkscape:window-y="26" inkscape:zoom="15.1875" pagecolor="#ffffff" showgrid="true">
	</sodipodi:namedview>
<g id="layer1_1_" inkscape:groupmode="layer" inkscape:label="Layer 1">
	<path id="rect2248" class="st0" d="M34.5,11.7h186.3c13.7,0,24.8,14.2,24.8,31.5v173.1c0,17.3-11.2,31.5-24.8,31.5H34.5
		c-13.7,0-24.8-14.2-24.8-31.5V43.2C9.6,25.9,20.8,11.7,34.5,11.7z"/>
	<path id="path4000" sodipodi:nodetypes="cccc" class="st1" d="M20,22.7l94.2,108.6c7.4,9.4,12.8,9.4,20.2,0L235.3,19.5"/>
	<path class="st1" d="M102.3,118.9c-22,30.3-42.1,61.8-63.6,92.4C32.6,220,26.4,228.5,20,237"/>
	<path class="st1" d="M235.3,241c-24.3-30.8-45.7-63.7-68.4-95.7c-6.6-9.3-13.4-18.6-20.3-27.7"/>
</g>
</svg>
