<?xml version="1.0" encoding="utf-8"?>
<!-- Generator: Adobe Illustrator 22.1.0, SVG Export Plug-In . SVG Version: 6.00 Build 0)  -->
<svg version="1.1" id="Layer_2_1_" xmlns="http://www.w3.org/2000/svg" xmlns:xlink="http://www.w3.org/1999/xlink" x="0px" y="0px"
	 viewBox="0 0 113.8 113.8" style="enable-background:new 0 0 113.8 113.8;" xml:space="preserve">
<style type="text/css">
	.st0{fill:#FFFFFF;}
</style>
<title>logo</title>
<path class="st0" d="M18.9,0h76c10.4,0,18.9,8.5,18.9,18.9v76c0,10.4-8.5,18.9-18.9,18.9h-76C8.5,113.8,0,105.3,0,94.9v-76
	C0,8.5,8.5,0,18.9,0z"/>
<path d="M49.6,44.4h-5.4l-2.1-5.6h-9.9l-2,5.6H25l9.6-24.6h5.3L49.6,44.4z M40.5,34.7l-3.4-9.1l-3.3,9.1H40.5z"/>
<path d="M49.6,44.4V19.8H60c1.9-0.1,3.9,0.1,5.7,0.7c1.2,0.4,2.2,1.3,2.9,2.4c0.7,1.2,1.1,2.5,1.1,3.9c0.1,1.7-0.5,3.3-1.6,4.6
	c-1.3,1.3-3,2.1-4.9,2.3c1,0.6,1.9,1.3,2.7,2.1c1.1,1.2,2,2.6,2.8,4l3,4.8h-5.9l-3.6-5.4c-0.8-1.3-1.7-2.5-2.6-3.6
	c-0.4-0.4-0.9-0.8-1.5-1c-0.8-0.2-1.7-0.3-2.5-0.3h-1v10.3L49.6,44.4z M54.6,30.2h3.7c1.5,0.1,3,0,4.5-0.3c0.6-0.2,1.1-0.6,1.4-1
	c0.3-0.5,0.5-1.2,0.5-1.8c0-0.7-0.2-1.4-0.7-2c-0.5-0.5-1.2-0.9-1.9-1c-0.4,0-1.6-0.1-3.6-0.1h-3.9L54.6,30.2z"/>
<path d="M76.9,44.4V23.9h-7.3v-4.2h19.6v4.2h-7.3v20.5H76.9z"/>
<path d="M20.8,64v-4.1h10.7v9.8c-1.3,1.2-2.9,2.1-4.5,2.7c-1.9,0.8-3.9,1.1-6,1.1c-2.3,0.1-4.7-0.5-6.7-1.6
	c-1.9-1.1-3.4-2.7-4.3-4.6c-1-2-1.5-4.3-1.4-6.5c0-2.4,0.5-4.7,1.6-6.8c1.1-2,2.7-3.6,4.7-4.6c1.8-0.9,3.9-1.3,5.9-1.2
	c2.5-0.1,5,0.5,7.2,1.9c1.7,1.3,2.9,3.2,3.3,5.3l-4.9,0.9c-0.3-1.2-1-2.2-2-2.9c-1.1-0.7-2.3-1.1-3.6-1c-1.9-0.1-3.8,0.7-5.2,2.1
	c-1.3,1.4-1.9,3.4-1.9,6.1c0,2.9,0.7,5.1,2,6.6s3.2,2.3,5.1,2.2c1.1,0,2.1-0.2,3.1-0.6s1.9-0.9,2.7-1.5V64H20.8z"/>
<path d="M34,48.4h5v13.3c0,1.4,0,2.8,0.2,4.1c0.2,1,0.7,1.8,1.5,2.4c1,0.7,2.1,1,3.3,0.9c1.1,0.1,2.3-0.2,3.2-0.9
	c0.7-0.5,1.1-1.3,1.3-2.1c0.2-1.4,0.3-2.8,0.2-4.2V48.4h5v12.9c0.1,2.1-0.1,4.2-0.4,6.3c-0.2,1.1-0.7,2.2-1.5,3.1s-1.8,1.6-2.9,2
	c-1.5,0.6-3.1,0.8-4.7,0.8c-1.8,0.1-3.6-0.2-5.4-0.8c-1.1-0.5-2.1-1.2-2.9-2.1c-0.7-0.8-1.1-1.7-1.4-2.7c-0.4-2.1-0.5-4.2-0.5-6.3
	L34,48.4z"/>
<path d="M56.8,73.1V48.4h5V73L56.8,73.1L56.8,73.1z"/>
<path d="M64.8,48.4h9.1c1.6-0.1,3.1,0.1,4.7,0.5c1.4,0.4,2.7,1.2,3.7,2.3c1.1,1.1,1.9,2.5,2.4,4c0.6,1.9,0.9,3.8,0.8,5.8
	c0,1.8-0.2,3.5-0.8,5.2c-0.5,1.6-1.4,3.1-2.6,4.4c-1,0.9-2.2,1.6-3.5,2c-1.4,0.4-2.9,0.6-4.4,0.5h-9.4
	C64.8,73.1,64.8,48.4,64.8,48.4z M69.8,52.6v16.3h3.7c1,0,2,0,3-0.2c0.7-0.2,1.4-0.5,2-1c0.6-0.7,1.1-1.5,1.3-2.4
	c0.4-1.5,0.5-3,0.5-4.5c0.1-1.5-0.1-3-0.5-4.4c-0.3-0.9-0.8-1.7-1.4-2.4c-0.6-0.6-1.4-1-2.3-1.2c-1.3-0.2-2.7-0.3-4.1-0.2L69.8,52.6
	z"/>
<path d="M87.7,73.1V48.4H106v4.2H92.6v5.5H105v4.1H92.6v6.7h13.8V73L87.7,73.1L87.7,73.1z"/>
<path d="M13.4,77.7h2.3v2.8l2.4-2.8h3l-2.7,2.8l2.8,4.6h-2.8l-1.6-3l-1.2,1.2v1.8h-2.3v-7.4H13.4z"/>
<path d="M22.2,81.4c-0.1-1,0.3-2,1-2.8c0.8-0.7,1.8-1.1,2.8-1c1-0.1,2.1,0.3,2.8,1c0.7,0.7,1.1,1.7,1,2.8c0,0.7-0.1,1.5-0.4,2.1
	c-0.3,0.5-0.7,1-1.3,1.3c-0.6,0.3-1.3,0.5-2,0.5s-1.4-0.1-2.1-0.4c-0.6-0.3-1-0.7-1.3-1.3C22.4,83,22.2,82.2,22.2,81.4z M24.5,81.4
	c-0.1,0.6,0.1,1.1,0.4,1.6c0.3,0.3,0.7,0.5,1.1,0.5s0.9-0.2,1.1-0.5c0.3-0.5,0.5-1.1,0.4-1.7c0-0.5-0.1-1.1-0.4-1.5
	c-0.3-0.3-0.7-0.5-1.1-0.5s-0.8,0.2-1.1,0.5C24.6,80.3,24.4,80.9,24.5,81.4L24.5,81.4z"/>
<path d="M32,77.7h3.8c0.7,0,1.3,0.2,1.9,0.6c0.4,0.5,0.6,1.1,0.6,1.7c0,0.7-0.2,1.3-0.7,1.8c-0.6,0.5-1.3,0.7-2,0.6h-1.3v2.7H32
	V77.7z M34.3,80.9h0.6c0.3,0,0.7,0,0.9-0.2c0.2-0.1,0.3-0.4,0.3-0.6s-0.1-0.4-0.2-0.6c-0.2-0.2-0.6-0.3-0.9-0.2h-0.6L34.3,80.9
	L34.3,80.9z"/>
<path d="M40.2,77.7h6.1v1.6h-3.8v1.2H46V82h-3.5v1.5h3.9v1.7h-6.2V77.7z"/>
<path d="M48.6,77.7h2.1l2.8,4.1v-4.1h2.1v7.4h-2.1l-2.8-4v4h-2.1V77.7z"/>
<path d="M58.1,77.7h2.3v2.6h2.5v-2.6h2.3v7.4h-2.3v-3h-2.5v3h-2.3V77.7z"/>
<path d="M72.1,83.9h-2.6l-0.4,1.2h-2.3l2.8-7.4h2.5l2.8,7.4h-2.4L72.1,83.9z M71.7,82.3l-0.8-2.7L70,82.3H71.7z"/>
<path d="M80,82.5V81h3.5v3.1c-0.6,0.4-1.2,0.7-1.8,0.9c-0.6,0.2-1.2,0.3-1.8,0.3c-0.7,0-1.5-0.1-2.1-0.5c-0.6-0.3-1-0.8-1.3-1.3
	c-0.3-0.6-0.5-1.3-0.5-2s0.2-1.5,0.5-2.1s0.8-1.1,1.5-1.4c0.6-0.3,1.3-0.4,2-0.4c0.6,0,1.2,0,1.8,0.2c0.4,0.1,0.7,0.4,1,0.7
	c0.3,0.3,0.5,0.7,0.6,1.2l-2.2,0.4c-0.1-0.3-0.2-0.5-0.5-0.6c-0.7-0.4-1.5-0.2-2,0.3c-0.3,0.5-0.5,1.1-0.5,1.6
	c-0.1,0.6,0.1,1.2,0.5,1.7c0.3,0.4,0.8,0.5,1.3,0.5c0.2,0,0.5,0,0.7-0.1c0.3-0.1,0.5-0.2,0.8-0.4v-0.7L80,82.5z"/>
<path d="M85.8,77.7h6.1v1.6h-3.8v1.2h3.5V82h-3.5v1.5H92v1.7h-6.2V77.7z"/>
<path d="M94.2,77.7h2.1l2.8,4.1v-4.1h2.1v7.4h-2.1l-2.8-4v4h-2.1V77.7z"/>
<path d="M11.3,89.7h1.1v1.4l1.2-1.4h1.5l-1.4,1.4l1.4,2.3h-1.4L13,91.9l-0.6,0.6v0.9h-1.1C11.3,93.4,11.3,89.7,11.3,89.7z"/>
<path d="M15.8,91.6c0-0.5,0.2-1,0.5-1.4c0.4-0.4,0.9-0.5,1.4-0.5s1,0.1,1.4,0.5c0.3,0.4,0.5,0.9,0.5,1.4c0,0.4-0.1,0.7-0.2,1.1
	c-0.1,0.3-0.4,0.5-0.6,0.6c-0.3,0.2-0.7,0.2-1,0.2s-0.7-0.1-1-0.2s-0.5-0.4-0.7-0.6C15.9,92.3,15.8,92,15.8,91.6z M17,91.6
	c0,0.3,0,0.6,0.2,0.8c0.1,0.2,0.4,0.2,0.6,0.2s0.4-0.1,0.6-0.2c0.2-0.3,0.2-0.6,0.2-0.9s-0.1-0.5-0.2-0.8c-0.1-0.2-0.4-0.2-0.6-0.2
	s-0.4,0.1-0.6,0.3C17,91,17,91.3,17,91.6L17,91.6z"/>
<path d="M20.8,89.7h1.9c0.3,0,0.7,0.1,0.9,0.3c0.2,0.2,0.3,0.5,0.3,0.8s-0.1,0.7-0.3,0.9c-0.3,0.2-0.6,0.3-1,0.3H22v1.4h-1.2V89.7z
	 M21.9,91.3h0.3c0.2,0,0.3,0,0.5-0.1c0.1-0.1,0.1-0.2,0.1-0.3c0-0.1,0-0.2-0.1-0.3c-0.1-0.1-0.3-0.1-0.4-0.1H22L21.9,91.3z"/>
<path d="M25,89.7h3.1v0.8h-1.9v0.6H28v0.8h-1.8v0.7h2v0.8H25V89.7z"/>
<path d="M29.3,89.7h1.1l1.4,2v-2h1.1v3.7h-1.1l-1.4-2v2h-1.1L29.3,89.7z"/>
<path d="M34.2,89.7h1.1V91h1.3v-1.3h1.1v3.7h-1.1v-1.5h-1.3v1.5h-1.1V89.7z"/>
<path d="M41.3,92.8H40l-0.2,0.6h-1.2l1.4-3.7h1.2l1.4,3.7h-1.2L41.3,92.8z M41.1,92l-0.4-1.3L40.2,92H41.1z"/>
<path d="M45.3,92.1v-0.8h1.8v1.6c-0.3,0.2-0.6,0.4-0.9,0.5c-0.3,0.1-0.6,0.1-0.9,0.1c-0.4,0-0.7-0.1-1.1-0.2
	c-0.3-0.2-0.5-0.4-0.6-0.7c-0.2-0.3-0.2-0.7-0.2-1c0-0.4,0.1-0.7,0.3-1.1c0.2-0.3,0.4-0.5,0.7-0.7c0.3-0.1,0.7-0.2,1-0.2
	s0.6,0,0.9,0.1c0.2,0.1,0.4,0.2,0.5,0.3c0.1,0.2,0.2,0.4,0.3,0.6L46,90.8c0-0.1-0.1-0.2-0.2-0.3c-0.1-0.1-0.3-0.1-0.4-0.1
	c-0.2,0-0.5,0.1-0.6,0.3c-0.3,0.5-0.3,1.2,0,1.7c0.2,0.2,0.4,0.3,0.6,0.3c0.1,0,0.3,0,0.4-0.1c0.1-0.1,0.3-0.1,0.4-0.2V92L45.3,92.1
	z"/>
<path d="M48.3,89.7h3.1v0.8h-1.9v0.6h1.8v0.8h-1.8v0.7h2v0.8h-3.1L48.3,89.7z"/>
<path d="M52.6,89.7h1.1l1.4,2v-2h1.1v3.7h-1.1l-1.4-2v2h-1.1V89.7z"/>
<path d="M57.4,92.4h1.1v1h-1.1V92.4z"/>
<path d="M59.8,89.7h1.7c0.3,0,0.6,0,0.8,0.1s0.4,0.2,0.5,0.4c0.1,0.2,0.2,0.4,0.3,0.6s0.1,0.5,0.1,0.7c0,0.3,0,0.6-0.1,0.9
	c-0.1,0.2-0.2,0.4-0.4,0.5c-0.1,0.1-0.3,0.2-0.5,0.3c-0.2,0.1-0.4,0.1-0.7,0.1h-1.7C59.8,93.3,59.8,89.7,59.8,89.7z M61,90.6v2h0.3
	c0.2,0,0.3,0,0.5-0.1c0.1-0.1,0.2-0.2,0.2-0.3c0.1-0.2,0.1-0.4,0.1-0.6c0-0.3,0-0.6-0.2-0.8c-0.2-0.2-0.4-0.2-0.6-0.2H61z"/>
<path d="M64.4,89.7h1.1v1.4l1.2-1.4h1.5l-1.3,1.4l1.4,2.3h-1.4l-0.8-1.5l-0.6,0.6v0.9h-1.1L64.4,89.7z"/>
<path d="M70,89.7h0.5l-0.9,3.8H69L70,89.7z"/>
<path d="M73.5,92.8h-1.3L72,93.4h-1.2l1.4-3.7h1.2l1.4,3.7h-1.2L73.5,92.8z M73.3,92l-0.4-1.3L72.5,92H73.3z"/>
<path d="M75.9,93.4v-3.7h1.9c0.3,0,0.5,0,0.8,0.1c0.2,0.1,0.3,0.2,0.5,0.3c0.1,0.2,0.2,0.4,0.2,0.6s0,0.4-0.1,0.5s-0.2,0.3-0.4,0.4
	c-0.1,0.1-0.3,0.1-0.4,0.1c0.1,0,0.2,0.1,0.3,0.1c0.1,0.1,0.1,0.1,0.2,0.2s0.1,0.1,0.2,0.2l0.5,1.1h-1.3l-0.6-1.1
	c-0.1-0.1-0.1-0.2-0.2-0.3c-0.1-0.1-0.2-0.1-0.3-0.1H77v1.5L75.9,93.4z M77,91.2h0.5h0.3c0.1,0,0.2-0.1,0.2-0.2s0.1-0.1,0.1-0.2
	s0-0.2-0.1-0.3c-0.1-0.1-0.3-0.1-0.4-0.1H77V91.2z"/>
<path d="M80.1,89.7h3.5v0.9h-1.2v2.8h-1.1v-2.8h-1.2L80.1,89.7z"/>
<path d="M86.5,92.1v-0.8h1.8v1.6c-0.3,0.2-0.6,0.4-0.9,0.5s-0.6,0.1-0.9,0.1c-0.4,0-0.7-0.1-1.1-0.2c-0.3-0.1-0.5-0.4-0.6-0.7
	c-0.2-0.3-0.2-0.7-0.2-1c0-0.4,0.1-0.7,0.3-1.1c0.2-0.3,0.4-0.5,0.7-0.7c0.3-0.1,0.7-0.2,1-0.2s0.6,0,0.9,0.1
	c0.2,0.1,0.4,0.2,0.5,0.3c0.1,0.2,0.3,0.4,0.3,0.6l-1.1,0.2c0-0.1-0.1-0.2-0.2-0.3c-0.1-0.1-0.3-0.1-0.4-0.1c-0.2,0-0.5,0.1-0.6,0.3
	c-0.2,0.2-0.2,0.5-0.2,0.8s0,0.6,0.2,0.9c0.2,0.2,0.4,0.3,0.6,0.3c0.1,0,0.3,0,0.4-0.1s0.3-0.1,0.4-0.2V92L86.5,92.1z"/>
<path d="M91.9,89.7H93v2.2c0,0.2,0,0.4-0.1,0.6s-0.2,0.4-0.3,0.5c-0.1,0.1-0.3,0.2-0.5,0.3c-0.3,0.1-0.5,0.1-0.8,0.1
	c-0.2,0-0.4,0-0.6,0s-0.4-0.1-0.5-0.1c-0.1-0.1-0.3-0.2-0.4-0.3c-0.1-0.1-0.2-0.3-0.2-0.4c-0.1-0.2-0.1-0.4-0.1-0.6v-2.2h1.1V92
	c0,0.2,0,0.3,0.2,0.5c0.1,0.1,0.3,0.2,0.5,0.2c0.3,0,0.6-0.2,0.6-0.5v-0.1L91.9,89.7z"/>
<path d="M94.3,89.7h1.1v3.7h-1.1V89.7z"/>
<path d="M96.8,89.7h1.7c0.3,0,0.6,0,0.8,0.1c0.2,0.1,0.4,0.2,0.5,0.4c0.1,0.2,0.2,0.4,0.3,0.6c0.1,0.2,0.1,0.5,0.1,0.7
	c0,0.3,0,0.6-0.1,0.9c-0.1,0.2-0.2,0.4-0.4,0.5c-0.1,0.1-0.3,0.2-0.5,0.3c-0.2,0.1-0.4,0.1-0.7,0.1h-1.7L96.8,89.7z M98,90.6v2h0.3
	c0.2,0,0.3,0,0.5-0.1c0.1-0.1,0.2-0.2,0.2-0.3c0.1-0.2,0.1-0.4,0.1-0.6c0-0.3,0-0.6-0.2-0.8c-0.2-0.2-0.4-0.2-0.6-0.2H98z"/>
<path d="M101.4,89.7h3.1v0.8h-1.9v0.6h1.8v0.8h-1.8v0.7h2v0.8h-3.1L101.4,89.7z"/>
</svg>
