<?xml version="1.0" encoding="utf-8"?>
<!-- Generator: Adobe Illustrator 24.1.1, SVG Export Plug-In . SVG Version: 6.00 Build 0)  -->
<svg version="1.1" id="Layer_1" xmlns="http://www.w3.org/2000/svg" xmlns:xlink="http://www.w3.org/1999/xlink" x="0px" y="0px"
	 viewBox="0 0 841.9 72.7" style="enable-background:new 0 0 841.9 72.7;" xml:space="preserve">
<style type="text/css">
	.st0{fill:#FFFFFF;}
	.st1{display:none;}
	.st2{fill:none;}
	.st3{font-family:'Arial-BoldMT';}
	.st4{font-size:46px;}
	.st5{fill:#D6D6D6;}
</style>
<path class="st0" d="M800.9,72.7H36.1C19,72.7,5,58.7,5,41.6V31.1C5,14,19,0,36.1,0h764.8C818,0,832,14,832,31.1v10.5
	C832,58.7,818,72.7,800.9,72.7z"/>
<g id="Layer_1_1_" class="st1">

		<image style="display:inline;overflow:visible;enable-background:new    ;" width="927" height="69" xlink:href="16AA6C02.gif"  transform="matrix(0.7715 0 0 0.7715 26.0951 5.2067)">
	</image>
</g>
<g id="Layer_2_1_">
	<g>
		<rect x="26.1" y="5.2" class="st0" width="715.2" height="53.2"/>
		<rect x="30.2" y="20.6" class="st2" width="579.9" height="44"/>
		<text transform="matrix(1 0 0 1 30.2313 53.5569)" class="st3 st4">KOPENHAGEN</text>
		<g>
			<rect x="346.9" y="21.2" class="st2" width="542.5" height="51.5"/>
			<text transform="matrix(1 0 0 1 346.8953 54.1909)" class="st5 st3 st4">ARTGUIDE</text>
		</g>
	</g>
</g>
</svg>
