<svg id="Layer_1" data-name="Layer 1" xmlns="http://www.w3.org/2000/svg" viewBox="0 0 863.3 67.5"><defs><style>.cls-1{fill:#fff;}.cls-2{fill:none;}.cls-3{isolation:isolate;}.cls-4{fill:#d6d6d6;}</style></defs><title>logo2_reversed1</title><g id="Layer_2" data-name="Layer 2"><rect class="cls-1" width="715.2" height="53.2"/><rect class="cls-2" x="4.1" y="15.4" width="579.9" height="44"/><g class="cls-3"><path d="M33.67,262.45V229.52h6.65v14.62l13.43-14.62h8.94l-12.4,12.82,13.07,20.11h-8.6l-9-15.46-5.39,5.51v9.95Z" transform="translate(-26.1 -214.1)"/><path d="M63.47,246.18A20.82,20.82,0,0,1,65,237.74,15.69,15.69,0,0,1,68,233.22a12.87,12.87,0,0,1,4.26-3,18.06,18.06,0,0,1,7.1-1.3q7.27,0,11.64,4.51T95.41,246q0,8-4.33,12.48T79.49,263q-7.35,0-11.68-4.48T63.47,246.18Zm6.85-.22c0,3.73.86,6.55,2.59,8.48a8.87,8.87,0,0,0,13.08,0q2.55-2.86,2.55-8.59c0-3.77-.83-6.59-2.48-8.44a9.19,9.19,0,0,0-13.22,0Q70.32,240.28,70.32,246Z" transform="translate(-26.1 -214.1)"/><path d="M98.62,262.45V229.52h10.67a38.83,38.83,0,0,1,7.91.49,8.7,8.7,0,0,1,4.74,3.23,10.22,10.22,0,0,1,1.91,6.41,10.8,10.8,0,0,1-1.1,5.1A9,9,0,0,1,120,248a9.48,9.48,0,0,1-3.45,1.56,37.26,37.26,0,0,1-6.89.48h-4.34v12.42Zm6.65-27.36v9.34h3.64a17.47,17.47,0,0,0,5.26-.51,4.36,4.36,0,0,0,2.83-4.18,4.29,4.29,0,0,0-1.06-3,4.68,4.68,0,0,0-2.67-1.46,32.25,32.25,0,0,0-4.79-.22Z" transform="translate(-26.1 -214.1)"/><path d="M127.33,262.45V229.52h24.41v5.57H134v7.3h16.54v5.55H134v9h18.4v5.55Z" transform="translate(-26.1 -214.1)"/><path d="M156.1,262.45V229.52h6.47l13.47,22v-22h6.18v32.93h-6.67L162.27,241v21.48Z" transform="translate(-26.1 -214.1)"/><path d="M187.29,262.45V229.52h6.65v13h13v-13h6.65v32.93H207v-14.4h-13v14.4Z" transform="translate(-26.1 -214.1)"/><path d="M248.21,262.45H241L238.1,255H224.94l-2.72,7.48h-7.05L228,229.52h7Zm-12.25-13-4.53-12.22L227,249.42Z" transform="translate(-26.1 -214.1)"/><path d="M265.07,250.34v-5.55H279.4v13.12a18.06,18.06,0,0,1-6,3.56,21.94,21.94,0,0,1-8,1.54,18,18,0,0,1-9-2.17,13.76,13.76,0,0,1-5.77-6.2,20,20,0,0,1-1.93-8.77,18.9,18.9,0,0,1,2.16-9.14,14.44,14.44,0,0,1,6.31-6.13A16.94,16.94,0,0,1,265,229q6.14,0,9.58,2.57a11.59,11.59,0,0,1,4.44,7.11l-6.61,1.23a7,7,0,0,0-2.61-3.83,8,8,0,0,0-4.8-1.4A9,9,0,0,0,258,237.4c-1.71,1.84-2.57,4.58-2.57,8.2q0,5.86,2.6,8.79a8.7,8.7,0,0,0,6.83,2.94,11.56,11.56,0,0,0,4.19-.82,14.58,14.58,0,0,0,3.61-2v-4.18Z" transform="translate(-26.1 -214.1)"/><path d="M283.56,262.45V229.52H308v5.57H290.21v7.3h16.53v5.55H290.21v9H308.6v5.55Z" transform="translate(-26.1 -214.1)"/><path d="M312.33,262.45V229.52h6.47l13.47,22v-22h6.18v32.93h-6.67L318.5,241v21.48Z" transform="translate(-26.1 -214.1)"/></g><rect class="cls-2" x="320.8" y="16" width="542.5" height="51.5"/><g class="cls-3"><path class="cls-4" d="M379.94,263.08H372.7l-2.87-7.48H356.67L354,263.08H346.9l12.82-32.93h7Zm-12.25-13-4.53-12.22-4.45,12.22Z" transform="translate(-26.1 -214.1)"/><path class="cls-4" d="M381.51,263.08V230.15h14a24,24,0,0,1,7.67.89A7.56,7.56,0,0,1,407,234.2a9.45,9.45,0,0,1,1.44,5.18,8.77,8.77,0,0,1-2.18,6.12,10.48,10.48,0,0,1-6.52,3.05,15.45,15.45,0,0,1,3.56,2.76,37.29,37.29,0,0,1,3.79,5.35l4,6.42h-7.95l-4.81-7.16a46.42,46.42,0,0,0-3.5-4.85,5.1,5.1,0,0,0-2-1.36,10.8,10.8,0,0,0-3.35-.38h-1.35v13.75Zm6.64-19h4.92a25.34,25.34,0,0,0,6-.41,3.58,3.58,0,0,0,1.86-1.39,4.28,4.28,0,0,0,.68-2.47,3.94,3.94,0,0,0-.89-2.68,4.08,4.08,0,0,0-2.51-1.29c-.53-.08-2.15-.12-4.85-.12h-5.19Z" transform="translate(-26.1 -214.1)"/><path class="cls-4" d="M420.14,263.08V235.72h-9.77v-5.57h26.16v5.57h-9.74v27.36Z" transform="translate(-26.1 -214.1)"/><path class="cls-4" d="M454.16,251v-5.54h14.33v13.11a17.89,17.89,0,0,1-6.05,3.56,21.94,21.94,0,0,1-8,1.54,18.09,18.09,0,0,1-9-2.16,13.86,13.86,0,0,1-5.77-6.2,20,20,0,0,1-1.93-8.78,19,19,0,0,1,2.16-9.14,14.49,14.49,0,0,1,6.31-6.13,17.06,17.06,0,0,1,7.88-1.64q6.13,0,9.58,2.57a11.65,11.65,0,0,1,4.44,7.11l-6.61,1.24a6.91,6.91,0,0,0-2.61-3.83,7.89,7.89,0,0,0-4.8-1.41,9,9,0,0,0-6.93,2.77q-2.56,2.76-2.57,8.2,0,5.85,2.61,8.79A8.69,8.69,0,0,0,454,258a11.35,11.35,0,0,0,4.19-.82,14.4,14.4,0,0,0,3.61-2V251Z" transform="translate(-26.1 -214.1)"/><path class="cls-4" d="M472.6,230.15h6.65V248a36.07,36.07,0,0,0,.25,5.5,5.33,5.33,0,0,0,2,3.25,7.13,7.13,0,0,0,4.39,1.22,6.71,6.71,0,0,0,4.27-1.16,4.59,4.59,0,0,0,1.73-2.84,37.74,37.74,0,0,0,.29-5.59V230.15h6.65v17.3a44.47,44.47,0,0,1-.54,8.38,9.22,9.22,0,0,1-2,4.13,9.92,9.92,0,0,1-3.87,2.68,16.79,16.79,0,0,1-6.33,1,18.2,18.2,0,0,1-7.16-1.09,10.17,10.17,0,0,1-3.85-2.83,9.09,9.09,0,0,1-1.87-3.65,40.22,40.22,0,0,1-.65-8.35Z" transform="translate(-26.1 -214.1)"/><path class="cls-4" d="M503.69,263.08V230.15h6.65v32.93Z" transform="translate(-26.1 -214.1)"/><path class="cls-4" d="M514.67,230.15h12.15a23.73,23.73,0,0,1,6.27.63,11,11,0,0,1,5,3,14.41,14.41,0,0,1,3.15,5.34,24.27,24.27,0,0,1,1.07,7.78,21.48,21.48,0,0,1-1,7,14.65,14.65,0,0,1-3.52,5.82,11.66,11.66,0,0,1-4.67,2.62,19.93,19.93,0,0,1-5.89.7H514.67Zm6.65,5.57v21.81h5a18.11,18.11,0,0,0,4-.31,6.19,6.19,0,0,0,2.69-1.37,7,7,0,0,0,1.74-3.18,21.42,21.42,0,0,0,.67-6,19.62,19.62,0,0,0-.67-5.86,7.47,7.47,0,0,0-1.89-3.19,6.26,6.26,0,0,0-3.08-1.55,29.85,29.85,0,0,0-5.45-.32Z" transform="translate(-26.1 -214.1)"/><path class="cls-4" d="M545.93,263.08V230.15h24.42v5.57H552.58V243h16.53v5.55H552.58v9H571v5.55Z" transform="translate(-26.1 -214.1)"/></g></g></svg>
