<svg id="Layer_1" data-name="Layer 1" xmlns="http://www.w3.org/2000/svg" viewBox="0 0 199.5 113.8"><defs><style>.cls-1{fill:#fff;}.cls-2{fill:none;}.cls-3,.cls-4,.cls-5,.cls-9{isolation:isolate;}.cls-3,.cls-4{font-size:34.4px;font-family:Arial-BoldMT, Arial;font-weight:700;}.cls-3{letter-spacing:-0.06em;}.cls-4{letter-spacing:-0.03em;}.cls-5{font-size:10.32px;fill:#070707;}.cls-5,.cls-9{font-family:Arial-Black, Arial;font-weight:800;}.cls-6{letter-spacing:-0.03em;}.cls-7{letter-spacing:-0.02em;}.cls-8{letter-spacing:0em;}.cls-9{font-size:5.16px;fill:#050505;}.cls-10{letter-spacing:-0.01em;}</style></defs><g id="Layer_2" data-name="Layer 2"><path class="cls-1" d="M99.9,113.8h-76A19,19,0,0,1,5,94.9v-76A19,19,0,0,1,23.9,0h76a19,19,0,0,1,18.9,18.9v76A19,19,0,0,1,99.9,113.8Z" transform="translate(-5)"/><rect class="cls-2" x="24.9" y="19.8" width="149.1" height="25.2"/><text class="cls-3" transform="translate(24.94 44.39)">ART</text><rect class="cls-2" x="6.9" y="48.4" width="188" height="33.3"/><text class="cls-4" transform="translate(6.88 73.05)">GUIDE</text><text class="cls-5" transform="translate(12.61 85.11)"><tspan class="cls-6">K</tspan><tspan x="8.24" y="0">OPENH</tspan><tspan class="cls-7" x="48.93" y="0">A</tspan><tspan class="cls-8" x="56.77" y="0">GEN</tspan></text><rect class="cls-2" x="10.9" y="89.7" width="188.6" height="18.3"/><text class="cls-9" transform="translate(10.89 93.39)"><tspan class="cls-6">K</tspan><tspan x="4.12" y="0">OPENH</tspan><tspan class="cls-7" x="24.47" y="0">A</tspan><tspan x="28.39" y="0">GEN.DK/A</tspan><tspan class="cls-10" x="56.19" y="0">R</tspan><tspan class="cls-6" x="60.15" y="0">T</tspan><tspan x="63.7" y="0">GUIDE</tspan></text></g></svg>
